<?xml version="1.0" standalone="no"?><!DOCTYPE svg PUBLIC "-//W3C//DTD SVG 1.1//EN" "http://www.w3.org/Graphics/SVG/1.1/DTD/svg11.dtd"><svg t="1680424318156" class="icon" viewBox="0 0 1031 1024" version="1.1" xmlns="http://www.w3.org/2000/svg" p-id="2798" xmlns:xlink="http://www.w3.org/1999/xlink" width="201.3671875" height="200"><path d="M970.507463 1018.905473H49.671642C25.472637 1018.905473 0 988.338308 0 966.686567V132.457711C0 105.711443 29.293532 89.154229 49.671642 89.154229H152.835821c14.00995 0 25.472637 11.462687 25.472637 25.472637s-11.462687 25.472637-25.472637 25.472636H50.945274v824.039801l3.820895 3.820896h910.646766c1.273632-1.273632 2.547264-2.547264 2.547264-3.820896V636.81592c0-14.00995 11.462687-25.472637 25.472637-25.472636s25.472637 11.462687 25.472637 25.472636v329.870647c0 22.925373-24.199005 52.218905-48.39801 52.218906z" fill="" p-id="2799"></path><path d="M993.432836 433.034826c-14.00995 0-25.472637-11.462687-25.472637-25.472637V140.099502h-114.626866c-14.00995 0-25.472637-11.462687-25.472636-25.472636s11.462687-25.472637 25.472636-25.472637h117.17413C990.885572 89.154229 1018.905473 105.711443 1018.905473 132.457711V407.562189c0 14.00995-11.462687 25.472637-25.472637 25.472637z" fill="" p-id="2800"></path><path d="M636.81592 140.099502H356.616915c-14.00995 0-25.472637-11.462687-25.472636-25.472636s11.462687-25.472637 25.472636-25.472637h280.199005c14.00995 0 25.472637 11.462687 25.472637 25.472637s-11.462687 25.472637-25.472637 25.472636z" fill="" p-id="2801"></path><path d="M254.726368 216.517413c-14.00995 0-25.472637-11.462687-25.472637-25.472637V25.472637c0-14.00995 11.462687-25.472637 25.472637-25.472637s25.472637 11.462687 25.472637 25.472637v165.572139c0 14.00995-11.462687 25.472637-25.472637 25.472637z" fill="" p-id="2802"></path><path d="M751.442786 216.517413c-14.00995 0-25.472637-11.462687-25.472637-25.472637V25.472637c0-14.00995 11.462687-25.472637 25.472637-25.472637s25.472637 11.462687 25.472637 25.472637v165.572139c0 14.00995-11.462687 25.472637-25.472637 25.472637z" fill="" p-id="2803"></path><path d="M993.432836 318.40796H25.472637c-14.00995 0-25.472637-11.462687-25.472637-25.472637s11.462687-25.472637 25.472637-25.472636h967.960199c14.00995 0 25.472637 11.462687 25.472637 25.472636s-11.462687 25.472637-25.472637 25.472637z" fill="" p-id="2804"></path><path d="M287.840796 573.134328h-47.124378c0-50.945274 16.557214-89.154229 49.671642-110.80597 21.651741-14.00995 48.39801-20.378109 80.238806-20.378109 33.114428 0 61.134328 10.189055 84.059701 30.567164 22.925373 20.378109 33.114428 48.39801 33.114428 82.78607 0 30.567164-10.189055 57.313433-29.293532 77.691542-12.736318 14.00995-36.935323 30.567164-71.323383 48.39801l-39.482587 21.651741c-22.925373 12.736318-39.482587 26.746269-50.945274 42.029851-7.641791 10.189055-12.736318 19.104478-14.00995 31.840796H483.9801v38.208955H231.800995c0-38.208955 8.915423-64.955224 25.472637-90.427861 14.00995-21.651741 35.661692-39.482587 63.681592-56.039801l49.671642-28.0199c25.472637-15.283582 42.029851-25.472637 49.671641-33.114428 12.736318-14.00995 19.104478-31.840796 19.104478-53.492537 0-17.830846-5.094527-33.114428-16.557214-44.577115-14.00995-15.283582-33.114428-22.925373-58.587065-22.925373-24.199005 0-42.029851 5.094527-54.766169 19.104478-14.00995 15.283582-21.651741 42.029851-21.651741 67.502487z" fill="" p-id="2805"></path><path d="M778.189055 540.0199c0 24.199005-6.368159 43.303483-17.830846 57.313433-6.368159 7.641791-16.557214 15.283582-30.567164 22.925373 22.925373 10.189055 39.482587 24.199005 49.671642 43.303483 7.641791 14.00995 11.462687 30.567164 11.462686 48.39801 0 33.114428-10.189055 59.860697-30.567164 81.512438-22.925373 24.199005-54.766169 36.935323-96.79602 36.935323-14.00995 0-28.0199-1.273632-42.029851-5.094527-19.104478-5.094527-35.661692-12.736318-48.39801-22.925373-16.557214-12.736318-28.0199-29.293532-33.114428-49.671642-3.820896-10.189055-5.094527-24.199005-5.094527-39.482587 0-22.925373 5.094527-40.756219 16.557214-56.039801 11.462687-15.283582 26.746269-26.746269 47.124378-35.661692-34.38806-12.736318-50.945274-36.935323-50.945273-73.870646 0-25.472637 7.641791-48.39801 22.925373-66.228856 20.378109-24.199005 50.945274-36.935323 90.42786-36.935324 38.208955 0 68.776119 10.189055 89.154229 31.840796 19.104478 16.557214 28.0199 38.208955 28.019901 63.681592z m-114.626866 103.16418c-25.472637 0-44.577114 6.368159-57.313433 20.378109-14.00995 14.00995-20.378109 30.567164-20.378109 48.39801 0 19.104478 5.094527 35.661692 15.283582 48.39801 14.00995 17.830846 35.661692 26.746269 64.955224 26.746269 21.651741 0 38.208955-3.820896 49.671642-12.736319 16.557214-12.736318 25.472637-31.840796 25.472636-57.313433 0-24.199005-7.641791-42.029851-21.651741-54.766169-15.283582-12.736318-33.114428-19.104478-56.039801-19.104477z m-1.273632-40.756219c20.378109 0 35.661692-5.094527 48.39801-16.557214s17.830846-25.472637 17.830846-43.303483c0-14.00995-5.094527-26.746269-14.00995-36.935323-12.736318-12.736318-31.840796-20.378109-56.039801-20.37811-22.925373 0-39.482587 6.368159-49.671642 20.37811-7.641791 10.189055-12.736318 22.925373-12.736319 38.208955 0 17.830846 6.368159 31.840796 19.104478 42.029851 14.00995 11.462687 29.293532 16.557214 47.124378 16.557214z" fill="" p-id="2806"></path></svg>