<?xml version="1.0" standalone="no"?><!DOCTYPE svg PUBLIC "-//W3C//DTD SVG 1.1//EN" "http://www.w3.org/Graphics/SVG/1.1/DTD/svg11.dtd"><svg t="1680346496742" class="icon" viewBox="0 0 1024 1024" version="1.1" xmlns="http://www.w3.org/2000/svg" p-id="6093" xmlns:xlink="http://www.w3.org/1999/xlink" width="200" height="200"><path d="M874.690416 495.52477c0 11.2973-9.168824 20.466124-20.466124 20.466124l-604.773963 0 188.083679 188.083679c7.992021 7.992021 7.992021 20.947078 0 28.939099-4.001127 3.990894-9.240455 5.996574-14.46955 5.996574-5.239328 0-10.478655-1.995447-14.479783-5.996574l-223.00912-223.00912c-3.837398-3.837398-5.996574-9.046027-5.996574-14.46955 0-5.433756 2.159176-10.632151 5.996574-14.46955l223.019353-223.029586c7.992021-7.992021 20.957311-7.992021 28.949332 0 7.992021 8.002254 7.992021 20.957311 0 28.949332l-188.073446 188.073446 604.753497 0C865.521592 475.058646 874.690416 484.217237 874.690416 495.52477z" p-id="6094" fill="#ffffff"></path></svg>