<?xml version="1.0" standalone="no"?><!DOCTYPE svg PUBLIC "-//W3C//DTD SVG 1.1//EN" "http://www.w3.org/Graphics/SVG/1.1/DTD/svg11.dtd"><svg t="1680424369466" class="icon" viewBox="0 0 1024 1024" version="1.1" xmlns="http://www.w3.org/2000/svg" p-id="5311" xmlns:xlink="http://www.w3.org/1999/xlink" width="200" height="200"><path d="M682.666667 597.333333H341.333333a42.666667 42.666667 0 0 0 0 85.333334h341.333334a42.666667 42.666667 0 0 0 0-85.333334z m0-170.666666h-256a42.666667 42.666667 0 0 0 0 85.333333h256a42.666667 42.666667 0 0 0 0-85.333333z m170.666666-256h-128V128a42.666667 42.666667 0 0 0-85.333333 0v42.666667h-85.333333V128a42.666667 42.666667 0 0 0-85.333334 0v42.666667H384V128a42.666667 42.666667 0 0 0-85.333333 0v42.666667H170.666667a42.666667 42.666667 0 0 0-42.666667 42.666666v597.333334a128 128 0 0 0 128 128h512a128 128 0 0 0 128-128V213.333333a42.666667 42.666667 0 0 0-42.666667-42.666666z m-42.666666 640a42.666667 42.666667 0 0 1-42.666667 42.666666H256a42.666667 42.666667 0 0 1-42.666667-42.666666V256h85.333334v42.666667a42.666667 42.666667 0 0 0 85.333333 0V256h85.333333v42.666667a42.666667 42.666667 0 0 0 85.333334 0V256h85.333333v42.666667a42.666667 42.666667 0 0 0 85.333333 0V256h85.333334z" p-id="5312"></path></svg>